<mxfile host="app.diagrams.net" modified="2024-03-20T15:16:50.329Z" agent="Mozilla/5.0 (Windows NT 10.0; Win64; x64) AppleWebKit/537.36 (KHTML, like Gecko) Chrome/121.0.0.0 Safari/537.36 Edg/121.0.0.0" version="24.0.7" etag="ppljQa9nGokef824ndRH" type="github">
  <diagram name="Page-1" id="qa4ppFpTUju--X5755mS">
    <mxGraphModel>
      <root>
        <mxCell id="0" />
        <mxCell id="1" parent="0" />
      </root>
    </mxGraphModel>
  </diagram>
</mxfile>
